<svg xmlns="http://www.w3.org/2000/svg" xmlns:xlink="http://www.w3.org/1999/xlink" viewBox="0 0 362 229"><defs><pattern id="pattern" width="100%" height="100%" preserveAspectRatio="xMidYMid slice" viewBox="0 0 400 225"><image width="400" height="225" xlink:href="./backgraund.jpg"/></pattern><filter id="Rectángulo_11" width="362" height="232" x="0" y="0" filterUnits="userSpaceOnUse"><feOffset dy="3" input="SourceAlpha"/><feGaussianBlur result="blur"/><feFlood flood-opacity=".161"/><feComposite in2="blur" operator="in"/><feComposite in="SourceGraphic"/></filter><pattern id="pattern-2" width="100%" height="100%" preserveAspectRatio="none" viewBox="0 0 300 300"><image width="300" height="300" xlink:href="./logo.jpg"/></pattern><filter id="primer_logo" width="129" height="129.5" x="120.5" y="47" filterUnits="userSpaceOnUse"><feOffset dx="2" dy="5" input="SourceAlpha"/><feGaussianBlur result="blur-2" stdDeviation="1.5"/><feFlood flood-opacity=".161"/><feComposite in2="blur-2" operator="in"/><feComposite in="SourceGraphic"/></filter><clipPath><rect width="362" height="229"/></clipPath></defs><g><rect width="362" height="229" fill="#fff"/><g id="Header" transform="translate(3 13)"><path id="Intersección_2" fill="url(#pattern)" d="M38,233V4H398V233Z" data-name="Intersección 2" transform="translate(-41 -17)"/><g filter="url(#Rectángulo_11)" transform="matrix(1, 0, 0, 1, -3, -13)"><rect id="Rectángulo_11-2" width="362" height="229" data-name="Rectángulo 11" opacity=".59"/></g><g filter="url(#primer_logo)" transform="matrix(1, 0, 0, 1, -3, -13)"><g id="primer_logo-2" fill="url(#pattern-2)" stroke="#707070" stroke-width="1" data-name="primer_logo" transform="translate(123 47)"><rect width="120" height="120" stroke="none" rx="60"/><rect width="119" height="119" x=".5" y=".5" fill="none" rx="59.5"/></g></g><g id="dis_barras" transform="translate(-2 -13)"><g id="Barra" fill="#dd7e75" stroke="#707070" stroke-width="1" opacity=".8" transform="translate(-54.598 -9.494) rotate(42)"><rect width="161" height="15" stroke="none" rx="7.5"/><rect width="160" height="14" x=".5" y=".5" fill="none" rx="7"/></g><g id="Barra-2" fill="#dd7e75" stroke="#707070" stroke-width="1" data-name="Barra" opacity=".8" transform="translate(334.385 102.603) rotate(42)"><rect width="122" height="15" stroke="none" rx="7.5"/><rect width="121" height="14" x=".5" y=".5" fill="none" rx="7"/></g><g id="Barra-3" fill="#dd7e75" stroke="#707070" stroke-width="1" data-name="Barra" opacity=".8" transform="translate(-54.598 60.506) rotate(42)"><rect width="161" height="15" stroke="none" rx="7.5"/><rect width="160" height="14" x=".5" y=".5" fill="none" rx="7"/></g><g id="Barra-4" fill="#dd7e75" stroke="#707070" stroke-width="1" data-name="Barra" opacity=".8" transform="translate(336.614 174.61) rotate(42)"><rect width="119" height="15" stroke="none" rx="7.5"/><rect width="118" height="14" x=".5" y=".5" fill="none" rx="7"/></g><g id="Barra-5" fill="#b8b39e" stroke="#707070" stroke-width="1" data-name="Barra" opacity=".8" transform="translate(-54.598 -44.494) rotate(42)"><rect width="111" height="15" stroke="none" rx="7.5"/><rect width="110" height="14" x=".5" y=".5" fill="none" rx="7"/></g><g id="Barra-6" fill="#b8b39e" stroke="#707070" stroke-width="1" data-name="Barra" opacity=".8" transform="translate(305.402 41.506) rotate(42)"><rect width="161" height="15" stroke="none" rx="7.5"/><rect width="160" height="14" x=".5" y=".5" fill="none" rx="7"/></g><g id="Barra-7" fill="#b8b39e" stroke="#707070" stroke-width="1" data-name="Barra" opacity=".8" transform="translate(-54.598 25.506) rotate(42)"><rect width="108" height="15" stroke="none" rx="7.5"/><rect width="107" height="14" x=".5" y=".5" fill="none" rx="7"/></g><g id="Barra-8" fill="#b8b39e" stroke="#707070" stroke-width="1" data-name="Barra" opacity=".8" transform="translate(305.402 111.506) rotate(42)"><rect width="161" height="15" stroke="none" rx="7.5"/><rect width="160" height="14" x=".5" y=".5" fill="none" rx="7"/></g></g></g></g></svg>