
<svg xmlns="http://www.w3.org/2000/svg" xmlns:xlink="http://www.w3.org/1999/xlink"  viewBox="0 0 362 229">
  <defs>
    <pattern id="pattern" preserveAspectRatio="xMidYMid slice" width="100%" height="100%" viewBox="0 0 400 225">
      <image width="400" height="225" xlink:href="./backgraund.jpg"/>
    </pattern>
    <filter id="Rectángulo_11" x="0" y="0" width="362" height="232" filterUnits="userSpaceOnUse">
      <feOffset dy="3" input="SourceAlpha"/>
      <feGaussianBlur result="blur"/>
      <feFlood flood-opacity="0.161"/>
      <feComposite operator="in" in2="blur"/>
      <feComposite in="SourceGraphic"/>
    </filter>
    <pattern id="pattern-2" preserveAspectRatio="none" width="100%" height="100%" viewBox="0 0 300 300">
      <image width="300" height="300" xlink:href="./logo.jpg"/>
    </pattern>
    <filter id="primer_logo" x="120.5" y="47" width="129" height="129.5" filterUnits="userSpaceOnUse">
      <feOffset dx="2" dy="5" input="SourceAlpha"/>
      <feGaussianBlur stdDeviation="1.5" result="blur-2"/>
      <feFlood flood-opacity="0.161"/>
      <feComposite operator="in" in2="blur-2"/>
      <feComposite in="SourceGraphic"/>
    </filter>
    <clipPath id="">
      <rect width="362" height="229"/>
    </clipPath>
  </defs>
  <g>
    <rect width="362" height="229" fill="#fff"/>
    <g id="Header" transform="translate(3 13)">
      <path id="Intersección_2" data-name="Intersección 2" d="M38,233V4H398V233Z" transform="translate(-41 -17)" fill="url(#pattern)"/>
      <g transform="matrix(1, 0, 0, 1, -3, -13)" filter="url(#Rectángulo_11)">
        <rect id="Rectángulo_11-2" data-name="Rectángulo 11" width="362" height="229" opacity="0.59"/>
      </g>
      <text id="_wortheat_" data-name="@wortheat_" transform="translate(125 189)" fill="#fff" font-size="20" font-family="YuGothicUI-Regular, Yu Gothic UI"><tspan x="0" y="0"></tspan></text>
      <g transform="matrix(1, 0, 0, 1, -3, -13)" filter="url(#primer_logo)">
        <g id="primer_logo-2" data-name="primer_logo" transform="translate(123 47)" stroke="#707070" stroke-width="1" fill="url(#pattern-2)">
          <rect width="120" height="120" rx="60" stroke="none"/>
          <rect x="0.5" y="0.5" width="119" height="119" rx="59.5" fill="none"/>
        </g>
      </g>
      <g id="dis_barras" transform="translate(-2 -13)">
        <g id="Barra" transform="translate(-54.598 -9.494) rotate(42)" fill="#dd7e75" stroke="#707070" stroke-width="1" opacity="0.8">
          <rect width="161" height="15" rx="7.5" stroke="none"/>
          <rect x="0.5" y="0.5" width="160" height="14" rx="7" fill="none"/>
        </g>
        <g id="Barra-2" data-name="Barra" transform="translate(334.385 102.603) rotate(42)" fill="#dd7e75" stroke="#707070" stroke-width="1" opacity="0.8">
          <rect width="122" height="15" rx="7.5" stroke="none"/>
          <rect x="0.5" y="0.5" width="121" height="14" rx="7" fill="none"/>
        </g>
        <g id="Barra-3" data-name="Barra" transform="translate(-54.598 60.506) rotate(42)" fill="#dd7e75" stroke="#707070" stroke-width="1" opacity="0.8">
          <rect width="161" height="15" rx="7.5" stroke="none"/>
          <rect x="0.5" y="0.5" width="160" height="14" rx="7" fill="none"/>
        </g>
        <g id="Barra-4" data-name="Barra" transform="translate(336.614 174.61) rotate(42)" fill="#dd7e75" stroke="#707070" stroke-width="1" opacity="0.8">
          <rect width="119" height="15" rx="7.5" stroke="none"/>
          <rect x="0.5" y="0.5" width="118" height="14" rx="7" fill="none"/>
        </g>
        <g id="Barra-5" data-name="Barra" transform="translate(-54.598 -44.494) rotate(42)" fill="#b8b39e" stroke="#707070" stroke-width="1" opacity="0.8">
          <rect width="111" height="15" rx="7.5" stroke="none"/>
          <rect x="0.5" y="0.5" width="110" height="14" rx="7" fill="none"/>
        </g>
        <g id="Barra-6" data-name="Barra" transform="translate(305.402 41.506) rotate(42)" fill="#b8b39e" stroke="#707070" stroke-width="1" opacity="0.8">
          <rect width="161" height="15" rx="7.5" stroke="none"/>
          <rect x="0.5" y="0.5" width="160" height="14" rx="7" fill="none"/>
        </g>
        <g id="Barra-7" data-name="Barra" transform="translate(-54.598 25.506) rotate(42)" fill="#b8b39e" stroke="#707070" stroke-width="1" opacity="0.8">
          <rect width="108" height="15" rx="7.5" stroke="none"/>
          <rect x="0.5" y="0.5" width="107" height="14" rx="7" fill="none"/>
        </g>
        <g id="Barra-8" data-name="Barra" transform="translate(305.402 111.506) rotate(42)" fill="#b8b39e" stroke="#707070" stroke-width="1" opacity="0.8">
          <rect width="161" height="15" rx="7.5" stroke="none"/>
          <rect x="0.5" y="0.5" width="160" height="14" rx="7" fill="none"/>
        </g>
      </g>
    </g>
  </g>
</svg>
